<svg id="Layer_2" enable-background="new 0 0 24 24" height="512" viewBox="0 0 24 24" width="512" xmlns="http://www.w3.org/2000/svg"><g><path d="m20.5 12.5h-2c-.276 0-.5-.224-.5-.5s.224-.5.5-.5h2c.276 0 .5.224.5.5s-.224.5-.5.5z"/></g><g><path d="m12 21c-.276 0-.5-.224-.5-.5v-2c0-.276.224-.5.5-.5s.5.224.5.5v2c0 .276-.224.5-.5.5z"/></g><g><path d="m5.99 18.511c-.128 0-.256-.049-.354-.146-.195-.195-.195-.512 0-.707l1.414-1.414c.195-.195.512-.195.707 0s.195.512 0 .707l-1.414 1.414c-.097.097-.225.146-.353.146z"/></g><g><path d="m16.596 7.903c-.128 0-.256-.049-.354-.146-.195-.195-.195-.512 0-.707l1.414-1.414c.195-.195.512-.195.707 0s.195.512 0 .707l-1.413 1.414c-.098.097-.226.146-.354.146z"/></g><g><path d="m18.01 18.511c-.128 0-.256-.049-.354-.146l-1.414-1.414c-.195-.195-.195-.512 0-.707s.512-.195.707 0l1.414 1.414c.195.195.195.512 0 .707-.097.097-.225.146-.353.146z"/></g><g><path d="m7.404 7.903c-.128 0-.256-.049-.354-.146l-1.414-1.414c-.195-.195-.195-.512 0-.707s.512-.195.707 0l1.414 1.414c.195.195.195.512 0 .707-.097.097-.225.146-.353.146z"/></g><g><path d="m12 24c-6.617 0-12-5.383-12-12 0-.276.224-.5.5-.5h11v-11c0-.276.224-.5.5-.5 6.617 0 12 5.383 12 12s-5.383 12-12 12zm-10.989-11.5c.263 5.834 5.091 10.5 10.989 10.5 6.065 0 11-4.935 11-11 0-5.897-4.666-10.727-10.5-10.989v10.989c0 .276-.224.5-.5.5z"/></g></svg>